<svg xmlns="http://www.w3.org/2000/svg" viewBox="0 0 100 100" width="100" height="100"><defs></defs><g id="Layer"><path id="Layer" style="fill: #9c9c9c" d="M95,50c0,-24.88 -20.11,-45 -45,-45c-24.88,0 -45,20.11 -45,45c0,24.89 20.11,45 45,45c24.89,0 45,-20.11 45,-45z" /><path id="Layer" style="fill: #414141" d="M58.38,31.76c0,2.09 0,4.14 0,6.25c-0.48,0 -0.95,0 -1.42,0c-0.87,0 -1.73,-0.01 -2.6,0c-0.95,0.01 -1.59,0.51 -1.63,1.44c-0.06,1.35 -0.02,2.7 -0.02,4.11c1.93,0 3.83,0 5.78,0c-0.23,2.18 -0.44,4.3 -0.66,6.47c-1.72,0 -3.4,0 -5.13,0c0,6.11 0,12.17 0,18.25c-2.55,0 -5.05,0 -7.6,0c0,-6.08 0,-12.14 0,-18.25c-1.22,0 -2.39,0 -3.58,0c0,-2.16 0,-4.28 0,-6.46c1.18,0 2.36,0 3.59,0c0,-0.22 0,-0.38 0,-0.55c0.02,-1.51 -0.05,-3.02 0.06,-4.53c0.19,-2.45 1.17,-4.5 3.38,-5.79c1.14,-0.66 2.39,-0.95 3.69,-0.97c1.98,-0.04 3.97,0 5.95,0c0.06,0 0.11,0.01 0.2,0.02z" /></g></svg>