<svg xmlns="http://www.w3.org/2000/svg" viewBox="0 0 100 100" width="100" height="100"><defs></defs><g id="Layer"><path id="Layer" style="fill: #9c9c9c" d="M95,50c0,-24.88 -20.11,-45 -45,-45c-24.88,0 -45,20.11 -45,45c0,24.89 20.11,45 45,45c24.89,0 45,-20.11 45,-45z" /><path id="Twitter_1_" style="fill: #414141" d="M68.77,34.06c-1.58,0.96 -3.32,1.65 -5.18,2.02c-1.48,-1.62 -3.6,-2.64 -5.95,-2.64c-4.5,0 -8.15,3.74 -8.15,8.36c0,0.66 0.07,1.29 0.21,1.9c-6.77,-0.35 -12.78,-3.67 -16.8,-8.74c-0.7,1.24 -1.1,2.68 -1.1,4.21c0,2.9 1.44,5.46 3.63,6.96c-1.33,-0.04 -2.59,-0.42 -3.69,-1.04v0.1c0,4.05 2.81,7.43 6.54,8.2c-0.68,0.2 -1.4,0.29 -2.15,0.29c-0.52,0 -1.04,-0.05 -1.53,-0.15c1.04,3.32 4.05,5.74 7.61,5.8c-2.79,2.24 -6.31,3.58 -10.12,3.58c-0.66,0 -1.31,-0.04 -1.94,-0.12c3.61,2.37 7.89,3.75 12.5,3.75c15,0 23.19,-12.73 23.19,-23.78c0,-0.36 -0.01,-0.73 -0.02,-1.08c1.59,-1.18 2.98,-2.65 4.06,-4.33c-1.46,0.66 -3.03,1.11 -4.68,1.31c1.68,-1.03 2.98,-2.67 3.59,-4.62z" /></g></svg>