<svg xmlns="http://www.w3.org/2000/svg" viewBox="0 0 100 100" width="100" height="100"><defs></defs><g id="Layer"><path id="Layer" style="fill: #9c9c9c" d="M95,50c0,-24.88 -20.11,-45 -45,-45c-24.88,0 -45,20.11 -45,45c0,24.89 20.11,45 45,45c24.89,0 45,-20.11 45,-45z" /><path id="Layer" style="fill: #414141" d="M42.28,38.83c0.21,-0.55 0.6,-0.88 1.08,-1.12c0.93,-0.45 1.92,-0.59 2.94,-0.57c1.44,0.03 2.88,0.12 4.31,0.18c0.65,0.03 1.29,0.05 1.9,0.3c0.91,0.37 1.4,1.06 1.42,2.02c0.02,0.78 -0.09,1.56 -0.12,2.35c-0.06,1.67 -0.13,3.34 -0.13,5.01c0,0.53 0.22,1.06 0.36,1.58c0.04,0.15 0.14,0.28 0.23,0.41c0.34,0.5 0.46,0.49 0.96,0.18c0.92,-0.58 1.59,-1.37 2.21,-2.25c0.84,-1.19 1.59,-2.42 2.21,-3.73c0.62,-1.31 1.24,-2.61 1.83,-3.94c0.29,-0.66 0.73,-0.94 1.45,-0.94c2.7,0.02 5.39,0.02 8.09,0c0.87,0 1.48,0.74 1.29,1.59c-0.21,0.9 -0.61,1.7 -1.09,2.47c-1.34,2.17 -2.82,4.24 -4.52,6.15c-0.6,0.67 -1.13,1.39 -1.41,2.26c-0.3,0.95 -0.11,1.78 0.6,2.49c1.25,1.25 2.54,2.47 3.76,3.75c0.72,0.76 1.36,1.6 2,2.44c0.41,0.53 0.67,1.15 0.59,1.85c-0.08,0.78 -0.48,1.19 -1.26,1.23c-1.52,0.08 -3.04,0.14 -4.56,0.21c-0.89,0.04 -1.77,0.09 -2.66,0.13c-0.71,0.03 -1.34,-0.23 -1.94,-0.57c-0.95,-0.55 -1.75,-1.29 -2.53,-2.05c-0.81,-0.78 -1.56,-1.62 -2.17,-2.58c-0.38,-0.61 -1.45,-0.94 -2.13,-0.69c-0.52,0.2 -0.77,0.62 -0.82,1.15c-0.09,0.87 -0.14,1.75 -0.22,2.62c-0.1,1.07 -0.77,1.74 -1.84,1.88c-2.11,0.28 -4.2,0.18 -6.28,-0.23c-1.52,-0.3 -2.84,-1.03 -4.1,-1.93c-1.72,-1.22 -3.18,-2.7 -4.55,-4.28c-0.71,-0.82 -1.33,-1.72 -1.94,-2.62c-1.95,-2.86 -3.79,-5.79 -5.4,-8.86c-0.77,-1.47 -1.55,-2.94 -1.95,-4.56c-0.09,-0.37 -0.14,-0.74 -0.21,-1.11c-0.04,-0.18 0.03,-0.32 0.2,-0.37c0.44,-0.13 0.88,-0.34 1.32,-0.35c1.43,-0.06 2.86,-0.05 4.29,-0.06c0.62,0 1.24,0.06 1.85,0.03c0.83,-0.04 1.38,0.34 1.74,1.03c0.36,0.7 0.66,1.42 1.01,2.12c1.22,2.53 2.54,5.01 4.25,7.24c0.25,0.33 0.63,0.59 1,0.8c0.44,0.25 0.82,0.12 1.09,-0.31c0.31,-0.51 0.46,-1.08 0.47,-1.68c0.03,-1.69 0.08,-3.38 0.06,-5.07c-0.02,-1.74 -0.89,-2.9 -2.52,-3.53c-0.04,-0.02 -0.08,-0.04 -0.15,-0.07z" /></g></svg>